<svg xmlns="http://www.w3.org/2000/svg" xmlns:xlink="http://www.w3.org/1999/xlink" viewBox="0 0 400 400"><defs><style>.cls-1{fill:none;}.cls-2{opacity:0.5;}.cls-3,.cls-6{fill:#fff;}.cls-4{fill:#002169;}.cls-5{clip-path:url(#clip-path);}.cls-6{stroke:#002169;stroke-miterlimit:2;stroke-width:2px;}</style><clipPath id="clip-path"><rect id="Cropping_Rect" data-name="Cropping Rect" class="cls-1" x="6" y="6" width="388" height="388"/></clipPath></defs><g id="Layer_2" data-name="Layer 2"><g id="Icon_Inverted" data-name="Icon Inverted"><g id="ICON_INVERT" data-name="ICON INVERT"><g class="cls-2"><rect class="cls-3" x="2" y="2" width="396" height="396"/><path class="cls-4" d="M396,4V396H4V4H396m4-4H0V400H400V0Z"/></g><rect class="cls-4" x="7" y="7" width="386" height="386"/><path class="cls-4" d="M392,8V392H8V8H392m2-2H6V394H394V6Z"/><g class="cls-5"><g id="Cutout"><g class="cls-2"><path class="cls-6" d="M144.05,330.76q11.22,0,26.14.19l1.22,0a50.2,50.2,0,0,0,2.6-10.12,118.65,118.65,0,0,1-17.38-3.64,69.18,69.18,0,0,1-28.46-16.27V174.33q0-20.91.39-40.85t1.94-40.07a124.64,124.64,0,0,1,43.1-10.57,47.51,47.51,0,0,0-2.63-9q-12.85.67-25.37,2.12a435.09,435.09,0,0,1-50.34,2.71q-10.07,0-20.13-.39T55,77.14v4.65q13.17,1.15,20.91,3.87T87.52,93a22.07,22.07,0,0,1,4.84,11,101.57,101.57,0,0,1,1,14.91V297.85a38.44,38.44,0,0,1-1.16,9.29,18.85,18.85,0,0,1-5.23,8.71A35.3,35.3,0,0,1,75.32,323q-7.54,3.09-20.33,4.25v4.65q13.17-.78,25.95-1.16t25.94-.39c5.42,0,11.09.06,17,.19S136.56,330.76,144.05,330.76Z"/><path class="cls-6" d="M333,154.2a130.38,130.38,0,0,0-32.72-43.56A147.2,147.2,0,0,0,252.08,83a166.77,166.77,0,0,0-22.43-6.15,60.26,60.26,0,0,0-2.34,11.73c-.06.63-.12,1.3-.18,2,1.16.45,2.31.9,3.46,1.38a116,116,0,0,1,38.33,25.55,118.43,118.43,0,0,1,25.17,38.14,121.42,121.42,0,0,1,9.1,47q0,58.08-27.3,88.66Q258.33,311,227.37,318a55.63,55.63,0,0,0,2.55,11.83,196.14,196.14,0,0,0,28.16-5.23,126.84,126.84,0,0,0,44.33-21.1,106.26,106.26,0,0,0,31-37.17Q345,243.64,345,211.5,345,179.76,333,154.2Z"/></g><path class="cls-3" d="M129.77,356.43q17.43-1.46,27.11-5.33A29.7,29.7,0,0,0,171.64,339q5.09-8.22,6.29-21.53t1.21-33.64V122.17q0-20.33-1.21-33.64T171.64,67q-5.08-8.23-15.25-12.1t-27.58-5.33V43.76q20.33,1,39.44,1.46t39.45.48q16,0,31.94-.48t31.46-1.46v5.81q-17,1.45-26.62,5.33A28.42,28.42,0,0,0,230,67q-4.85,8.23-6.05,21.53t-1.21,33.64V283.83q0,20.32,1.21,33.64T230.2,339a29.54,29.54,0,0,0,15.25,12.1q10.17,3.88,28.07,5.33v5.81q-18.4-1-36.78-1.46T200,360.3q-17.91,0-35.33.48t-34.85,1.46Z"/></g></g></g></g></g></svg>