<svg xmlns="http://www.w3.org/2000/svg" viewBox="0 0 402 402"><defs><style>.cls-1,.cls-2{fill:#002169;}.cls-1,.cls-3{fill-rule:evenodd;}.cls-3,.cls-4{fill:#fff;}</style></defs><g id="Layer_2" data-name="Layer 2"><g id="Square"><g id="SQUARE_LOGO" data-name="SQUARE LOGO"><polygon class="cls-1" points="1 1 397.59 1 1 397.59 1 1"/><path class="cls-2" d="M396.17,3,199.59,199.59,3,396.17V3H396.17M401,1H1V401L201,201,401,1Z" transform="translate(-1 -1)"/><polygon class="cls-3" points="4.41 401 401 4.41 401 401 4.41 401"/><path class="cls-2" d="M401,7.83V401H7.83L401,7.83M403,3,3,403H403V3Z" transform="translate(-1 -1)"/><g id="DESIGN"><path class="cls-2" d="M118.81,346.29a9,9,0,0,0,1.47-2.24,4.54,4.54,0,0,0,.4-1.71,2.48,2.48,0,0,0-.31-1.28,5,5,0,0,0-.75-.95l-16.33-16.34a13.83,13.83,0,0,0-1.45-1.27,2.78,2.78,0,0,0-1.45-.56,3.33,3.33,0,0,0-1.73.38,11.9,11.9,0,0,0-2.27,1.56l-.42-.42q1-.85,2-1.74c.63-.59,1.26-1.19,1.87-1.8a56.28,56.28,0,0,0,4.35-4.84,51.55,51.55,0,0,1,4.1-4.6A22.74,22.74,0,0,1,114.5,306a19,19,0,0,1,6.93-1.87,16.66,16.66,0,0,1,7,1,17.1,17.1,0,0,1,6.33,4.13,15.3,15.3,0,0,1,3.94,6.07,13.81,13.81,0,0,1,.57,6.22,16.47,16.47,0,0,1-2.12,6,26.1,26.1,0,0,1-4.16,5.36c-1.27,1.27-2.37,2.36-3.29,3.25l-2.4,2.37c-.68.69-1.3,1.29-1.86,1.82l-1.57,1.54c-.8.8-1.58,1.6-2.33,2.41s-1.51,1.62-2.27,2.47Zm4.28-9.08a9,9,0,0,0,4.08-1.11,15.16,15.16,0,0,0,3.38-2.53q5.44-5.44,5.14-10.73t-5.6-10.59a15.69,15.69,0,0,0-5.13-3.47,15.35,15.35,0,0,0-5.78-1.18,15,15,0,0,0-5.83,1.17,16.64,16.64,0,0,0-9,9.28q1.7,2,3.48,3.83t3.7,3.77Z" transform="translate(-1 -1)"/><path class="cls-2" d="M168,294.89c.26-.17.57-.38.92-.64s.74-.54,1.14-.85.8-.63,1.21-1a14.34,14.34,0,0,0,1.12-1,26.39,26.39,0,0,0,3.45-4.15,15.36,15.36,0,0,0,1.94-4.21,17.64,17.64,0,0,0,.65-4.61,34.4,34.4,0,0,0-.38-5.41l.7-.07,3.89,10.32c-.45.36-.89.73-1.34,1.13s-.87.81-1.27,1.21l-13.3,13.29c-.68.68-1.35,1.38-2,2.09s-1.31,1.42-2,2.15l-.42-.42a9.92,9.92,0,0,0,1.59-2.37,3,3,0,0,0,.18-1.95,5.48,5.48,0,0,0-1.14-2q-.88-1.07-2.37-2.55l-11.8-11.8q-1.49-1.49-2.55-2.37a5.48,5.48,0,0,0-2-1.14,2.94,2.94,0,0,0-2,.22,10.64,10.64,0,0,0-2.41,1.62l-.42-.42,2.35-2.21c.74-.7,1.5-1.42,2.28-2.18s1.6-1.56,2.46-2.42l2.91-2.91c1.65-1.65,3.29-3.32,4.92-5s3.26-3.38,4.91-5.13c.24.29.48.56.73.84s.49.52.72.76l1.42,1.41a21.46,21.46,0,0,0,1.64,1.5c.58.49,1.21,1,1.89,1.61l-.32.6a12.43,12.43,0,0,0-4-1.55,8,8,0,0,0-3.45.09,9.09,9.09,0,0,0-3,1.39,20.31,20.31,0,0,0-2.76,2.33c-1.65,1.65-3.23,3.38-4.74,5.17l8.84,8.84c.47-.48.91-.94,1.33-1.4s.85-.93,1.32-1.4a9.52,9.52,0,0,0,2.9-4.84q.47-2.4-1.8-5.3l.42-.43c.85.85,1.69,1.71,2.51,2.58s1.65,1.72,2.48,2.55,1.71,1.68,2.58,2.51,1.73,1.66,2.58,2.51l-.42.42a15.22,15.22,0,0,0-3.2-1.64,5.26,5.26,0,0,0-2.58-.28,5.73,5.73,0,0,0-2.39,1,20.25,20.25,0,0,0-2.62,2.26L157.1,284Z" transform="translate(-1 -1)"/><path class="cls-2" d="M200.55,232.31a18.57,18.57,0,0,0-3.43-1.06,14.15,14.15,0,0,0-3.66-.3,11.68,11.68,0,0,0-3.51.72,8.62,8.62,0,0,0-3.08,2,9.13,9.13,0,0,0-2.56,4.05,3.93,3.93,0,0,0,1.36,3.94,4.75,4.75,0,0,0,2.54,1.38,8.21,8.21,0,0,0,3-.09,20.09,20.09,0,0,0,3.37-1l3.61-1.45c1.22-.5,2.46-.95,3.71-1.35a14.05,14.05,0,0,1,3.73-.68,9.8,9.8,0,0,1,3.61.49,8.81,8.81,0,0,1,3.37,2.21,9.11,9.11,0,0,1,2.35,3.62,8.33,8.33,0,0,1,.36,3.79,10.53,10.53,0,0,1-1.31,3.71,17,17,0,0,1-2.67,3.45,16.84,16.84,0,0,1-2,1.67c-.75.53-1.48,1-2.21,1.47l-2,1.24a8.24,8.24,0,0,0-1.31,1,3.08,3.08,0,0,0-.62.87c-.16.31-.32.65-.48,1q-2.33-1.68-4.67-3.18t-4.81-3l.22-.71a35.52,35.52,0,0,0,4.1,1,22,22,0,0,0,4.48.42,15.77,15.77,0,0,0,4.34-.65,8.56,8.56,0,0,0,3.69-2.21,11.41,11.41,0,0,0,1.75-2.21,7.15,7.15,0,0,0,1-2.4,5.06,5.06,0,0,0-.14-2.44,5.87,5.87,0,0,0-1.53-2.38,5.58,5.58,0,0,0-3.8-1.75,13.84,13.84,0,0,0-4.49.6,43.43,43.43,0,0,0-4.84,1.77,34.08,34.08,0,0,1-4.89,1.72,13.59,13.59,0,0,1-4.63.46,6.29,6.29,0,0,1-4.06-2,8.19,8.19,0,0,1-2-3,8.3,8.3,0,0,1-.49-3.36,8.89,8.89,0,0,1,.87-3.3,10.42,10.42,0,0,1,2.1-3,19.73,19.73,0,0,1,2.53-2.17c.81-.58,1.62-1.12,2.42-1.64l2.42-1.61a15.51,15.51,0,0,0,2.32-1.93c1.06,1.06,2.11,2.08,3.14,3s2.13,1.9,3.26,2.8Z" transform="translate(-1 -1)"/><path class="cls-2" d="M236.08,229a9.73,9.73,0,0,0,1.59-2.37,3,3,0,0,0,.2-2,5.06,5.06,0,0,0-1.12-2c-.58-.71-1.37-1.56-2.36-2.55L222.58,208.3c-1-1-1.84-1.77-2.55-2.36a5.12,5.12,0,0,0-2-1.12,3.13,3.13,0,0,0-2,.23,10.94,10.94,0,0,0-2.4,1.63l-.43-.43c1-.94,2-1.86,3-2.77s1.93-1.86,2.92-2.85c.77-.78,1.54-1.57,2.3-2.37s1.48-1.6,2.19-2.4l.42.42a10,10,0,0,0-1.55,2.34,2.86,2.86,0,0,0-.18,1.94,5.26,5.26,0,0,0,1.13,2c.59.7,1.38,1.55,2.37,2.54l11.81,11.81c1,1,1.84,1.78,2.54,2.37a5.06,5.06,0,0,0,2,1.11,3,3,0,0,0,2-.23,10.53,10.53,0,0,0,2.44-1.66l.43.43c-.95.84-1.88,1.71-2.8,2.58s-1.82,1.75-2.72,2.65-1.72,1.74-2.54,2.61-1.64,1.76-2.44,2.66Z" transform="translate(-1 -1)"/><path class="cls-2" d="M269.81,164.75c-1.34-.45-2.69-.85-4.05-1.19a16.39,16.39,0,0,0-4-.51,11.2,11.2,0,0,0-3.87.69,10.17,10.17,0,0,0-3.63,2.42,9.25,9.25,0,0,0-2.59,4.58,13.14,13.14,0,0,0-.11,5.27,17.19,17.19,0,0,0,1.87,5.26,20,20,0,0,0,3.38,4.55,21.4,21.4,0,0,0,4.81,3.64,15.39,15.39,0,0,0,5.18,1.79,12.3,12.3,0,0,0,5.06-.32,10.21,10.21,0,0,0,4.47-2.71,23,23,0,0,0,3-3.66,11,11,0,0,0,1.68-4.4l-4.56-4.56q-2.4-2.4-6.15,1.13l-.42-.42c.92-.87,1.77-1.67,2.56-2.39s1.66-1.55,2.6-2.49,1.73-1.76,2.58-2.65,1.69-1.81,2.51-2.72l.42.42a11.64,11.64,0,0,0-1.2,1.56,4.19,4.19,0,0,0-.62,1.53,3.22,3.22,0,0,0,.16,1.58,4.67,4.67,0,0,0,1.13,1.66l4.95,4.95q-1.62,3.26-3.32,6.33a23.67,23.67,0,0,1-3.92,5.3,19.66,19.66,0,0,1-5.43,3.84,17.52,17.52,0,0,1-6.4,1.69,16.28,16.28,0,0,1-6.68-.95,17,17,0,0,1-6.31-4.16,15.54,15.54,0,0,1-3.75-5.9,17.77,17.77,0,0,1-1-6.74,19.53,19.53,0,0,1,1.49-6.61A16.94,16.94,0,0,1,253.3,165c1-1,1.88-1.79,2.74-2.49s1.67-1.29,2.44-1.8,1.48-.95,2.14-1.33,1.28-.74,1.87-1.09c.38.37.91.85,1.59,1.41s1.41,1.14,2.18,1.72l2.23,1.66c.71.53,1.3,1,1.75,1.25Z" transform="translate(-1 -1)"/><path class="cls-2" d="M281.66,137.77c.87-.78,1.69-1.53,2.45-2.24s1.65-1.58,2.64-2.57c.51-.52,1-1,1.48-1.55s.94-1.06,1.42-1.63c.73.12,1.88.25,3.44.41l5.38.53,6.45.62q3.43.32,6.66.65t6,.65c1.84.22,3.32.42,4.45.61l.07-.08c-.7-.7-1.4-1.41-2.08-2.12s-1.38-1.41-2.09-2.12l-4.1-4.1q-2.26-2.27-4.1-3.78a13.7,13.7,0,0,0-3.45-2.18,5.58,5.58,0,0,0-3.07-.39,6.47,6.47,0,0,0-3,1.58l-.43-.43c.88-.77,1.74-1.57,2.6-2.38s1.7-1.63,2.53-2.46,1.51-1.53,2.26-2.33,1.49-1.61,2.19-2.41l.43.43q-1.95,2.51-1.77,4.34a6.8,6.8,0,0,0,2.26,3.93L329,137.49l-1.31,1.31q-5-1.1-10-1.79t-9.76-1.13q-4.71-.44-8.93-.65c-2.8-.15-5.31-.26-7.52-.36.58.64,1.17,1.26,1.74,1.86s1.18,1.21,1.79,1.82l6.19,6.19c2.1,2.09,3.79,3.71,5.09,4.84a10.92,10.92,0,0,0,3.39,2.19,3.53,3.53,0,0,0,2.73-.1,17,17,0,0,0,3.11-2.09l.42.42q-1.87,1.74-3.61,3.4t-3.53,3.46c-.69.69-1.35,1.37-2,2s-1.27,1.39-1.91,2.13l-.42-.43c.68-.92,1.27-1.73,1.76-2.44a5.72,5.72,0,0,0,1-2,3.3,3.3,0,0,0-.18-1.95,7.6,7.6,0,0,0-1.59-2.26l-15.8-16.65a13.25,13.25,0,0,0-3.93,1,30.58,30.58,0,0,0-3.64,1.88Z" transform="translate(-1 -1)"/><path class="cls-2" d="M348.12,84.74a18.57,18.57,0,0,0-3.43-1.06,14.11,14.11,0,0,0-3.65-.3,11.68,11.68,0,0,0-3.52.72,8.62,8.62,0,0,0-3.08,2,9.22,9.22,0,0,0-2.56,4,4,4,0,0,0,1.36,3.94,4.75,4.75,0,0,0,2.54,1.38,8.21,8.21,0,0,0,3-.09,20.17,20.17,0,0,0,3.37-1.05l3.61-1.44c1.23-.5,2.46-1,3.71-1.35a14.48,14.48,0,0,1,3.73-.69,9.81,9.81,0,0,1,3.61.5,8.69,8.69,0,0,1,3.37,2.21,9.26,9.26,0,0,1,2.36,3.62,8.29,8.29,0,0,1,.35,3.78,10.31,10.31,0,0,1-1.31,3.72,16.46,16.46,0,0,1-4.67,5.12c-.75.52-1.48,1-2.2,1.47l-2,1.24a7.68,7.68,0,0,0-1.31,1,3.18,3.18,0,0,0-.62.86c-.16.32-.31.66-.48,1-1.55-1.13-3.1-2.19-4.67-3.18s-3.16-2-4.81-3l.22-.71a35.52,35.52,0,0,0,4.1,1,22.72,22.72,0,0,0,4.48.42,16.1,16.1,0,0,0,4.34-.65,8.65,8.65,0,0,0,3.7-2.21,12.59,12.59,0,0,0,1.75-2.21,7.12,7.12,0,0,0,1-2.4,5.05,5.05,0,0,0-.14-2.44,5.86,5.86,0,0,0-1.53-2.39,5.6,5.6,0,0,0-3.8-1.74,13.84,13.84,0,0,0-4.49.6,42.2,42.2,0,0,0-4.84,1.77,35.34,35.34,0,0,1-4.89,1.72,13.82,13.82,0,0,1-4.63.46,6.29,6.29,0,0,1-4.06-2A8.18,8.18,0,0,1,329.56,92a8.89,8.89,0,0,1,.87-3.3,10.47,10.47,0,0,1,2.1-3,20.43,20.43,0,0,1,2.53-2.17c.81-.58,1.62-1.13,2.42-1.65l2.42-1.6a16.14,16.14,0,0,0,2.32-1.93q1.59,1.59,3.15,3c1,1,2.12,1.9,3.25,2.79Z" transform="translate(-1 -1)"/></g><g id="INDIGO"><path class="cls-4" d="M63.25,327.08a9.92,9.92,0,0,0,1.59-2.37,3,3,0,0,0,.19-2,5.06,5.06,0,0,0-1.11-2c-.59-.7-1.38-1.55-2.37-2.54L49.74,306.36c-1-1-1.84-1.78-2.54-2.37a5.09,5.09,0,0,0-2-1.11,3,3,0,0,0-2,.23,10.31,10.31,0,0,0-2.41,1.62l-.42-.42c1-.95,2-1.87,3-2.78s1.92-1.85,2.91-2.84c.78-.78,1.55-1.57,2.3-2.37s1.49-1.61,2.19-2.41l.43.43a9.58,9.58,0,0,0-1.56,2.33,3,3,0,0,0-.18,1.95,5.48,5.48,0,0,0,1.14,2c.58.71,1.37,1.56,2.36,2.55L64.73,315c1,1,1.84,1.77,2.55,2.36a5.19,5.19,0,0,0,2,1.12,3.13,3.13,0,0,0,2-.23,11.09,11.09,0,0,0,2.44-1.66l.42.42q-1.41,1.28-2.79,2.58c-.92.87-1.83,1.76-2.72,2.65s-1.72,1.75-2.55,2.62-1.64,1.75-2.44,2.65Z" transform="translate(-1 -1)"/><path class="cls-4" d="M67.21,277.44q1.31-1.17,2.46-2.25c.76-.72,1.64-1.57,2.63-2.56.52-.52,1-1,1.48-1.56s1-1.06,1.42-1.62c.73.12,1.88.25,3.45.4l5.37.53c2,.21,4.17.41,6.45.62s4.51.43,6.67.66,4.15.44,6,.65,3.32.41,4.45.6l.07-.07c-.7-.71-1.4-1.41-2.08-2.12s-1.38-1.41-2.09-2.12l-4.1-4.1c-1.51-1.51-2.87-2.77-4.1-3.79a13.74,13.74,0,0,0-3.45-2.17,5.48,5.48,0,0,0-3.07-.39,6.44,6.44,0,0,0-3,1.57l-.42-.42c.87-.78,1.73-1.57,2.59-2.39s1.71-1.63,2.53-2.45,1.51-1.54,2.26-2.34,1.49-1.6,2.2-2.4l.42.42q-1.95,2.52-1.77,4.35a6.82,6.82,0,0,0,2.27,3.93l18.73,18.73-1.3,1.31q-5-1.09-10-1.78t-9.75-1.13q-4.73-.45-8.93-.66T77,274.54c.59.64,1.17,1.25,1.75,1.85s1.17,1.21,1.78,1.82l6.19,6.19c2.1,2.1,3.79,3.72,5.09,4.85a10.94,10.94,0,0,0,3.4,2.19,3.5,3.5,0,0,0,2.72-.11,16.49,16.49,0,0,0,3.11-2.08l.42.42q-1.87,1.74-3.6,3.39t-3.54,3.47c-.68.68-1.34,1.37-2,2.05s-1.27,1.39-1.91,2.12l-.42-.42c.68-.92,1.27-1.74,1.77-2.44a5.81,5.81,0,0,0,1-2,3.27,3.27,0,0,0-.18-1.94A7.48,7.48,0,0,0,91,291.62L75.2,275a13.57,13.57,0,0,0-3.93,1,32.06,32.06,0,0,0-3.64,1.87Z" transform="translate(-1 -1)"/><path class="cls-4" d="M133.82,256.51a9.45,9.45,0,0,0,1.46-2.25,4.39,4.39,0,0,0,.41-1.71,2.33,2.33,0,0,0-.32-1.27,4.72,4.72,0,0,0-.74-1L118.3,234a13.88,13.88,0,0,0-1.45-1.28,2.86,2.86,0,0,0-1.45-.56,3.3,3.3,0,0,0-1.74.39,11.31,11.31,0,0,0-2.26,1.55l-.42-.42c.66-.57,1.31-1.14,1.94-1.73s1.26-1.19,1.88-1.81a54.46,54.46,0,0,0,4.34-4.84,53.12,53.12,0,0,1,4.11-4.6,22.69,22.69,0,0,1,6.25-4.49,19.06,19.06,0,0,1,6.93-1.87,16.71,16.71,0,0,1,7,1,17.17,17.17,0,0,1,6.33,4.14,15.31,15.31,0,0,1,3.94,6.06,13.81,13.81,0,0,1,.57,6.22,16.54,16.54,0,0,1-2.13,6,25.91,25.91,0,0,1-4.15,5.35q-1.91,1.91-3.29,3.26c-.92.89-1.72,1.68-2.4,2.36s-1.31,1.29-1.86,1.82l-1.57,1.54c-.8.8-1.58,1.61-2.34,2.41s-1.5,1.62-2.26,2.47Zm4.28-9.09a8.9,8.9,0,0,0,4.08-1.11,15.16,15.16,0,0,0,3.38-2.53q5.44-5.44,5.14-10.73t-5.6-10.59A15.71,15.71,0,0,0,140,219a15.21,15.21,0,0,0-5.78-1.19,15,15,0,0,0-5.83,1.17,16.73,16.73,0,0,0-9,9.28q1.69,2,3.48,3.83t3.69,3.77Z" transform="translate(-1 -1)"/><path class="cls-4" d="M177.66,212.67a9.92,9.92,0,0,0,1.59-2.37,3,3,0,0,0,.19-2,5.06,5.06,0,0,0-1.11-2c-.59-.7-1.38-1.55-2.37-2.54L164.15,192c-1-1-1.84-1.78-2.54-2.37a5.06,5.06,0,0,0-2-1.11,3,3,0,0,0-2,.23,10.64,10.64,0,0,0-2.41,1.62l-.42-.42c1-.94,2-1.87,3-2.78s1.93-1.85,2.92-2.84c.78-.78,1.55-1.57,2.3-2.37s1.48-1.6,2.19-2.41l.43.43a9.58,9.58,0,0,0-1.56,2.33,3,3,0,0,0-.18,2,5.51,5.51,0,0,0,1.13,2q.89,1.07,2.37,2.55l11.81,11.81c1,1,1.84,1.78,2.55,2.36a4.94,4.94,0,0,0,2,1.12,3.13,3.13,0,0,0,2-.23,11.33,11.33,0,0,0,2.44-1.66l.42.42q-1.41,1.28-2.79,2.58c-.92.87-1.83,1.76-2.72,2.65s-1.72,1.75-2.55,2.62-1.64,1.76-2.44,2.65Z" transform="translate(-1 -1)"/><path class="cls-4" d="M211.39,148.39c-1.35-.45-2.7-.84-4-1.18a17,17,0,0,0-4-.52,11.75,11.75,0,0,0-3.88.69,10,10,0,0,0-3.62,2.43,9.35,9.35,0,0,0-2.6,4.58,13.27,13.27,0,0,0-.11,5.26,17.27,17.27,0,0,0,1.88,5.27,19.67,19.67,0,0,0,3.38,4.54,20.84,20.84,0,0,0,4.8,3.64,15.17,15.17,0,0,0,5.18,1.79,12.12,12.12,0,0,0,5.06-.32,10.17,10.17,0,0,0,4.47-2.7,23.11,23.11,0,0,0,3-3.66,11.14,11.14,0,0,0,1.68-4.4L218,159.25c-1.6-1.61-3.66-1.23-6.15,1.13l-.43-.43c.92-.87,1.78-1.66,2.56-2.38s1.66-1.55,2.6-2.5,1.74-1.75,2.58-2.65,1.69-1.8,2.51-2.72l.43.42a11.64,11.64,0,0,0-1.2,1.56,4.06,4.06,0,0,0-.62,1.54,3.18,3.18,0,0,0,.16,1.57,4.46,4.46,0,0,0,1.13,1.66l5,5c-1.09,2.17-2.19,4.28-3.32,6.33a23.78,23.78,0,0,1-3.93,5.3,19.66,19.66,0,0,1-5.43,3.84,17.34,17.34,0,0,1-6.4,1.7,16.51,16.51,0,0,1-6.68-1,17.06,17.06,0,0,1-6.31-4.15,15.58,15.58,0,0,1-3.75-5.91,17.52,17.52,0,0,1-1-6.73,19.47,19.47,0,0,1,1.48-6.61,17.12,17.12,0,0,1,3.7-5.57,31.09,31.09,0,0,1,2.74-2.49c.86-.7,1.67-1.3,2.43-1.81s1.48-1,2.14-1.32,1.29-.74,1.88-1.1c.38.38.91.85,1.59,1.42s1.41,1.13,2.17,1.71l2.23,1.66c.72.53,1.3.95,1.75,1.26Z" transform="translate(-1 -1)"/><path class="cls-4" d="M236,132a17.18,17.18,0,0,1-4.09-6.17,16.31,16.31,0,0,1-1-6.64,17.19,17.19,0,0,1,1.75-6.56,22.4,22.4,0,0,1,10.15-10.15,17.19,17.19,0,0,1,6.55-1.75,16.17,16.17,0,0,1,6.65,1A18.51,18.51,0,0,1,266.2,112a16.15,16.15,0,0,1,1,6.64,17.19,17.19,0,0,1-1.75,6.56,22.4,22.4,0,0,1-10.15,10.15,17.19,17.19,0,0,1-6.56,1.75,16.15,16.15,0,0,1-6.64-1A17,17,0,0,1,236,132Zm3.75-3.75a18.56,18.56,0,0,0,4.77,3.5,15.19,15.19,0,0,0,5.32,1.65,12.93,12.93,0,0,0,5.34-.53A12.8,12.8,0,0,0,263,125a12.93,12.93,0,0,0,.53-5.34,15.19,15.19,0,0,0-1.65-5.32A19.49,19.49,0,0,0,253.6,106a15.19,15.19,0,0,0-5.32-1.65,12.93,12.93,0,0,0-5.34.53,12.8,12.8,0,0,0-7.85,7.85,12.93,12.93,0,0,0-.53,5.34,15.19,15.19,0,0,0,1.65,5.32A18.56,18.56,0,0,0,239.71,128.2Z" transform="translate(-1 -1)"/></g></g></g></g></svg>