<svg xmlns="http://www.w3.org/2000/svg" viewBox="0 0 506.23 61.63"><defs><style>.cls-1{fill:#002169;}.cls-2{fill:#fff;}</style></defs><g id="Layer_2" data-name="Layer 2"><g id="Main"><g id="MAIN_LOGO" data-name="MAIN LOGO"><rect class="cls-1" x="1" y="1" width="231.86" height="59.63"/><path class="cls-1" d="M231.86,2V59.63H2V2H231.86m2-2H0V61.63H233.86V0Z"/><rect class="cls-2" x="236.86" y="1" width="268.37" height="59.63"/><path class="cls-1" d="M504.23,2V59.63H237.86V2H504.23m2-2H235.86V61.63H506.23V0Z"/><g id="DESIGN"><path class="cls-1" d="M258.24,41.81a6.32,6.32,0,0,0,1.71-.36,3.06,3.06,0,0,0,1-.6,1.56,1.56,0,0,0,.44-.74,3,3,0,0,0,.1-.78V24.26a9.21,9.21,0,0,0-.08-1.26,1.79,1.79,0,0,0-.41-.93,2.15,2.15,0,0,0-1-.62,7.78,7.78,0,0,0-1.76-.33v-.39c.57.05,1.13.08,1.7.1s1.13,0,1.69,0a35.16,35.16,0,0,0,4.25-.23,35,35,0,0,1,4-.22,15,15,0,0,1,5,.81,12.53,12.53,0,0,1,4.06,2.33,10.95,10.95,0,0,1,3.77,8.5,10,10,0,0,1-1,4.62,8.87,8.87,0,0,1-2.61,3.13,10.61,10.61,0,0,1-3.74,1.78,17.07,17.07,0,0,1-4.38.55h-3l-2.2,0h-1.7c-.5,0-1,0-1.44,0-.74,0-1.46,0-2.18,0s-1.45.06-2.19.1Zm6.17-2.22a5.77,5.77,0,0,0,2.4,1.37,9.77,9.77,0,0,0,2.72.39q5,0,7.32-2.58t2.31-7.47a10.24,10.24,0,0,0-.77-4,9.92,9.92,0,0,0-2.12-3.21A9.75,9.75,0,0,0,273,22a11,11,0,0,0-8.44.13c-.08,1.13-.14,2.26-.16,3.38s0,2.27,0,3.44Z"/><path class="cls-1" d="M304.67,40.8l.72.13.91.13,1,.11c.35,0,.68,0,1,0a17,17,0,0,0,3.51-.33,9.83,9.83,0,0,0,2.84-1A11.82,11.82,0,0,0,317.07,38a22.91,22.91,0,0,0,2.31-2.67l.36.29-3,6.56c-.37,0-.75-.08-1.14-.1l-1.14,0H302.22q-.95,0-1.89,0c-.63,0-1.26.06-1.89.1v-.39a6.82,6.82,0,0,0,1.82-.36,1.91,1.91,0,0,0,1-.82,3.36,3.36,0,0,0,.41-1.45c.05-.6.08-1.35.08-2.27V26c0-.92,0-1.67-.08-2.27a3.36,3.36,0,0,0-.41-1.45,1.9,1.9,0,0,0-1-.82,7.45,7.45,0,0,0-1.86-.36v-.39l2.11.07,2,.05h4.94c1.53,0,3,0,4.57,0s3.07,0,4.64-.1c0,.24,0,.48-.05.72s0,.47,0,.68v1.31a14.21,14.21,0,0,0,.07,1.45c0,.49.08,1,.13,1.62l-.43.13a8.12,8.12,0,0,0-1.12-2.56,5.34,5.34,0,0,0-1.64-1.55,6,6,0,0,0-2-.75,13.62,13.62,0,0,0-2.35-.2c-1.53,0-3.05.07-4.57.2v8.15q.65,0,1.26,0c.4,0,.82,0,1.25,0a6.25,6.25,0,0,0,3.57-.9,4.4,4.4,0,0,0,1.62-3.28h.39c0,.78,0,1.57,0,2.35s0,1.56,0,2.32,0,1.56,0,2.34,0,1.57,0,2.35h-.39a10.26,10.26,0,0,0-.72-2.23,3.4,3.4,0,0,0-1.06-1.32,3.69,3.69,0,0,0-1.58-.62,13.33,13.33,0,0,0-2.25-.16h-2.09Z"/><path class="cls-1" d="M348.55,26.93a12.11,12.11,0,0,0-1.09-2.07A9.45,9.45,0,0,0,345.91,23a7.74,7.74,0,0,0-2-1.29,5.71,5.71,0,0,0-2.35-.49,6,6,0,0,0-3.05.69,2.59,2.59,0,0,0-1.19,2.45,3.07,3.07,0,0,0,.54,1.81,5.3,5.3,0,0,0,1.43,1.35,13.89,13.89,0,0,0,2,1.08l2.34,1c.79.34,1.57.7,2.33,1.1a9.21,9.21,0,0,1,2,1.4A6.3,6.3,0,0,1,349.51,34a5.71,5.71,0,0,1,.54,2.58,5.9,5.9,0,0,1-.59,2.75,5.27,5.27,0,0,1-1.58,1.91,6.7,6.7,0,0,1-2.31,1.11,10.81,10.81,0,0,1-2.83.36,10,10,0,0,1-1.69-.15c-.59-.1-1.16-.21-1.7-.34l-1.48-.34a5.18,5.18,0,0,0-1.07-.15,2,2,0,0,0-.68.12l-.69.24c-.19-1.23-.42-2.44-.68-3.62s-.53-2.39-.82-3.62l.43-.23A22.12,22.12,0,0,0,335.78,37a14.59,14.59,0,0,0,1.87,2.26A10.45,10.45,0,0,0,340,41a5.59,5.59,0,0,0,2.73.69,7.9,7.9,0,0,0,1.83-.22,4.66,4.66,0,0,0,1.54-.66,3.41,3.41,0,0,0,1.07-1.19,3.84,3.84,0,0,0,.39-1.81,3.65,3.65,0,0,0-.95-2.56,9.05,9.05,0,0,0-2.35-1.79,27.91,27.91,0,0,0-3-1.42,22.67,22.67,0,0,1-3.05-1.46,9.2,9.2,0,0,1-2.35-1.93,4.15,4.15,0,0,1-.95-2.8,5.34,5.34,0,0,1,1.82-4.09,5.92,5.92,0,0,1,1.92-1.12,6.91,6.91,0,0,1,2.33-.39,12.9,12.9,0,0,1,2.17.16c.64.11,1.27.23,1.88.36l1.86.38a10.12,10.12,0,0,0,2,.18c0,1,0,1.93.05,2.85s.1,1.86.21,2.79Z"/><path class="cls-1" d="M366.46,41.81a6.91,6.91,0,0,0,1.83-.36,2,2,0,0,0,1-.82,3.36,3.36,0,0,0,.43-1.45c.05-.6.08-1.35.08-2.27V26c0-.92,0-1.67-.08-2.27a3.36,3.36,0,0,0-.43-1.45,2,2,0,0,0-1-.82,7.45,7.45,0,0,0-1.86-.36v-.39c.91.05,1.8.08,2.66.1s1.74,0,2.66,0l2.15,0c.72,0,1.42,0,2.12-.1v.39a6.91,6.91,0,0,0-1.8.36,1.93,1.93,0,0,0-1,.82,3.36,3.36,0,0,0-.41,1.45c-.06.6-.08,1.35-.08,2.27V36.91c0,.92,0,1.67.08,2.27a3.23,3.23,0,0,0,.42,1.45,2,2,0,0,0,1,.82,7.54,7.54,0,0,0,1.89.36v.39c-.82,0-1.65-.08-2.48-.1s-1.65,0-2.48,0-1.6,0-2.38,0-1.56.06-2.35.1Z"/><path class="cls-1" d="M411.68,27.71c-.41-.82-.85-1.63-1.32-2.41a11.26,11.26,0,0,0-1.61-2.09,7.41,7.41,0,0,0-2.11-1.47,6.52,6.52,0,0,0-2.79-.55,6.07,6.07,0,0,0-3.31.91,8.63,8.63,0,0,0-2.48,2.38,11.42,11.42,0,0,0-1.57,3.3,12.84,12.84,0,0,0-.53,3.65,13.82,13.82,0,0,0,.53,3.9,10.17,10.17,0,0,0,1.57,3.22,7.94,7.94,0,0,0,2.48,2.18,6.69,6.69,0,0,0,3.31.82,15.67,15.67,0,0,0,3.07-.31,7.28,7.28,0,0,0,2.8-1.26V35.77q0-2.22-3.36-2.31v-.4c.83,0,1.59,0,2.29.09s1.48,0,2.35,0,1.61,0,2.41,0,1.61,0,2.42-.1v.4a7.1,7.1,0,0,0-1.28.16,2.79,2.79,0,0,0-1,.42,2.27,2.27,0,0,0-.66.8,3,3,0,0,0-.24,1.29V40.7c-1.5.5-3,1-4.45,1.39a15.48,15.48,0,0,1-4.26.63,12.74,12.74,0,0,1-4.27-.73,11.47,11.47,0,0,1-3.74-2.17,10.63,10.63,0,0,1-2.64-3.53,11,11,0,0,1-1-4.82,10.08,10.08,0,0,1,1-4.46,11.44,11.44,0,0,1,2.64-3.57,12.78,12.78,0,0,1,3.74-2.37,11.15,11.15,0,0,1,4.27-.86c.89,0,1.7,0,2.41.11s1.37.18,2,.3,1.12.24,1.6.37l1.37.36c0,.35,0,.81.08,1.39s.13,1.17.21,1.79.18,1.22.26,1.8.17,1,.23,1.38Z"/><path class="cls-1" d="M429.59,20.73c.76.05,1.49.08,2.17.1s1.49,0,2.4,0c.48,0,.95,0,1.4,0s.93,0,1.41-.1c.28.39.75,1,1.4,1.78l2.23,2.72c.84,1,1.74,2.11,2.7,3.27l2.77,3.37c.89,1.1,1.71,2.12,2.46,3.07s1.35,1.72,1.78,2.33h.07c0-.65,0-1.3,0-1.94s0-1.29,0-1.94V29.61c0-1.4-.05-2.61-.15-3.64a9.19,9.19,0,0,0-.58-2.6,3.6,3.6,0,0,0-1.25-1.59,4.21,4.21,0,0,0-2.1-.66v-.39c.76.05,1.53.08,2.3.1l2.3,0,2.12,0c.72,0,1.43,0,2.12-.1v.39a4.27,4.27,0,0,0-2.82,1.19,4.46,4.46,0,0,0-.77,2.86V42.46h-1.2q-1.8-2.8-3.8-5.45t-4-5q-2-2.39-3.81-4.42l-3.31-3.64c0,.57,0,1.12-.05,1.66s0,1.1,0,1.67V33c0,1.93,0,3.46.11,4.58a7.3,7.3,0,0,0,.56,2.58,2.23,2.23,0,0,0,1.31,1.2,10.47,10.47,0,0,0,2.39.48v.39c-1.11,0-2.18-.08-3.23-.1s-2.12,0-3.23,0q-.94,0-1.86,0c-.61,0-1.23.06-1.86.1v-.39c.74-.11,1.39-.21,1.94-.31a3.79,3.79,0,0,0,1.38-.49,2.18,2.18,0,0,0,.81-1,4.78,4.78,0,0,0,.31-1.78l.39-15a8.44,8.44,0,0,0-2.28-1.34,20.47,20.47,0,0,0-2.55-.82Z"/><path class="cls-1" d="M484.73,26.93a12.11,12.11,0,0,0-1.09-2.07A9.45,9.45,0,0,0,482.09,23a7.74,7.74,0,0,0-2-1.29,5.71,5.71,0,0,0-2.35-.49,6,6,0,0,0-3,.69,2.59,2.59,0,0,0-1.19,2.45,3.07,3.07,0,0,0,.54,1.81,5.3,5.3,0,0,0,1.43,1.35,13.89,13.89,0,0,0,2,1.08l2.34,1c.79.34,1.57.7,2.33,1.1a9.21,9.21,0,0,1,2,1.4A6.14,6.14,0,0,1,485.69,34a5.71,5.71,0,0,1,.54,2.58,5.9,5.9,0,0,1-.59,2.75,5.27,5.27,0,0,1-1.58,1.91,6.7,6.7,0,0,1-2.31,1.11,10.75,10.75,0,0,1-2.83.36,10,10,0,0,1-1.69-.15c-.59-.1-1.16-.21-1.7-.34l-1.48-.34a5.19,5.19,0,0,0-1.06-.15,2,2,0,0,0-.69.12l-.68.24c-.2-1.23-.43-2.44-.69-3.62s-.53-2.39-.81-3.62l.42-.23A22.12,22.12,0,0,0,472,37a14.59,14.59,0,0,0,1.87,2.26,10.45,10.45,0,0,0,2.3,1.7,5.59,5.59,0,0,0,2.73.69,7.9,7.9,0,0,0,1.83-.22,4.81,4.81,0,0,0,1.55-.66,3.38,3.38,0,0,0,1.06-1.19,3.84,3.84,0,0,0,.39-1.81,3.65,3.65,0,0,0-.95-2.56,9.05,9.05,0,0,0-2.35-1.79A27.91,27.91,0,0,0,477.34,32a22.67,22.67,0,0,1-3-1.46,9.2,9.2,0,0,1-2.35-1.93,4.14,4.14,0,0,1-.94-2.8,5.38,5.38,0,0,1,1.81-4.09,5.92,5.92,0,0,1,1.92-1.12,6.91,6.91,0,0,1,2.33-.39,12.9,12.9,0,0,1,2.17.16c.65.11,1.27.23,1.88.36l1.86.38a10.12,10.12,0,0,0,2,.18c0,1,0,1.93.05,2.85s.1,1.86.21,2.79Z"/></g><g id="INDIGO"><path class="cls-2" d="M19.82,41.16a7,7,0,0,0,1.83-.36,2.06,2.06,0,0,0,1-.82,3.36,3.36,0,0,0,.43-1.45c.05-.6.08-1.35.08-2.27V25.37c0-.92,0-1.67-.08-2.27a3.36,3.36,0,0,0-.43-1.45,2,2,0,0,0-1-.82,7.27,7.27,0,0,0-1.86-.36v-.39c.92,0,1.8.08,2.66.1s1.75,0,2.66,0c.72,0,1.44,0,2.15,0s1.43-.06,2.13-.1v.39a6.83,6.83,0,0,0-1.8.36,1.94,1.94,0,0,0-1,.82,3.51,3.51,0,0,0-.41,1.45c-.05.6-.08,1.35-.08,2.27V36.26c0,.92,0,1.67.08,2.27A3.36,3.36,0,0,0,26.59,40a2,2,0,0,0,1,.82,7.36,7.36,0,0,0,1.89.36v.39c-.83,0-1.65-.08-2.48-.1s-1.65,0-2.48,0-1.6,0-2.38,0-1.57,0-2.35.1Z"/><path class="cls-2" d="M44.55,20.08c.76,0,1.48.08,2.17.1s1.48,0,2.4,0c.47,0,.94,0,1.4,0s.92-.06,1.4-.1c.29.39.75,1,1.41,1.78l2.23,2.72c.84,1,1.73,2.11,2.69,3.26L61,31.22c.89,1.1,1.71,2.12,2.46,3.07s1.34,1.72,1.78,2.33h.06c0-.65,0-1.3,0-1.94s0-1.29,0-1.94V29c0-1.39,0-2.6-.14-3.63a9.08,9.08,0,0,0-.59-2.6,3.61,3.61,0,0,0-1.24-1.6,4.21,4.21,0,0,0-2.1-.65v-.39c.76,0,1.52.08,2.3.1l2.3,0,2.12,0c.72,0,1.42-.06,2.12-.1v.39a4.27,4.27,0,0,0-2.82,1.19,4.38,4.38,0,0,0-.77,2.86V41.81H65.33q-1.78-2.81-3.8-5.45c-1.34-1.76-2.66-3.44-4-5S55,28.27,53.73,26.92s-2.33-2.58-3.31-3.64c0,.56,0,1.12-.05,1.66s0,1.1,0,1.67v5.71c0,1.93,0,3.46.11,4.58A7.08,7.08,0,0,0,51,39.48a2.25,2.25,0,0,0,1.3,1.2,10.69,10.69,0,0,0,2.4.48v.39c-1.11,0-2.19-.08-3.23-.1s-2.12,0-3.23,0q-.95,0-1.86,0c-.61,0-1.23,0-1.86.1v-.39l1.94-.31a3.73,3.73,0,0,0,1.37-.49,2.2,2.2,0,0,0,.82-1A5.28,5.28,0,0,0,49,37.6l.39-15a8.62,8.62,0,0,0-2.29-1.33,19.8,19.8,0,0,0-2.54-.82Z"/><path class="cls-2" d="M84.94,41.16a6.32,6.32,0,0,0,1.71-.36,3,3,0,0,0,1-.61,1.48,1.48,0,0,0,.44-.73,3,3,0,0,0,.1-.78V23.6a9.16,9.16,0,0,0-.08-1.25,1.88,1.88,0,0,0-.41-.93,2.15,2.15,0,0,0-1-.62,7.78,7.78,0,0,0-1.76-.33v-.39c.57,0,1.13.08,1.7.1s1.13,0,1.69,0A37,37,0,0,0,92.57,20a35.31,35.31,0,0,1,4-.23,15,15,0,0,1,5,.82,12.35,12.35,0,0,1,4.06,2.33,11.17,11.17,0,0,1,2.76,3.67,11.32,11.32,0,0,1,1,4.83,10,10,0,0,1-1,4.62,9,9,0,0,1-2.61,3.13,10.61,10.61,0,0,1-3.74,1.78,17.09,17.09,0,0,1-4.39.55h-3l-2.21,0-1.69,0H89.31c-.74,0-1.47,0-2.18,0s-1.45,0-2.19.1Zm6.17-2.22a5.8,5.8,0,0,0,2.39,1.37,9.9,9.9,0,0,0,2.73.39q5,0,7.32-2.58c1.54-1.72,2.3-4.21,2.3-7.47a10.23,10.23,0,0,0-.76-4A10.08,10.08,0,0,0,103,23.47a9.88,9.88,0,0,0-3.23-2.15,11,11,0,0,0-8.44.13c-.08,1.13-.14,2.26-.16,3.38s0,2.26,0,3.44Z"/><path class="cls-2" d="M125.4,41.16a6.82,6.82,0,0,0,1.82-.36,2,2,0,0,0,1-.82,3.23,3.23,0,0,0,.42-1.45c.06-.6.08-1.35.08-2.27V25.37c0-.92,0-1.67-.08-2.27a3.23,3.23,0,0,0-.42-1.45,2,2,0,0,0-1-.82,7.45,7.45,0,0,0-1.86-.36v-.39c.91,0,1.8.08,2.66.1s1.75,0,2.66,0c.72,0,1.43,0,2.15,0s1.43-.06,2.12-.1v.39a6.74,6.74,0,0,0-1.79.36,1.9,1.9,0,0,0-1,.82,3.51,3.51,0,0,0-.41,1.45c-.05.6-.08,1.35-.08,2.27V36.26c0,.92,0,1.67.08,2.27a3.36,3.36,0,0,0,.43,1.45,2,2,0,0,0,1,.82,7.54,7.54,0,0,0,1.9.36v.39c-.83,0-1.66-.08-2.48-.1l-2.48,0c-.81,0-1.6,0-2.38,0s-1.57,0-2.35.1Z"/><path class="cls-2" d="M170.62,27.06c-.42-.82-.86-1.63-1.32-2.41a10.59,10.59,0,0,0-1.62-2.09,7.36,7.36,0,0,0-2.1-1.47,6.58,6.58,0,0,0-2.79-.55,6.11,6.11,0,0,0-3.32.91A8.76,8.76,0,0,0,157,23.83a11.4,11.4,0,0,0-1.56,3.3,12.81,12.81,0,0,0-.54,3.65,13.82,13.82,0,0,0,.54,3.9A10,10,0,0,0,157,37.89a8,8,0,0,0,2.48,2.19,6.72,6.72,0,0,0,3.32.82,15.57,15.57,0,0,0,3.06-.31,7.32,7.32,0,0,0,2.81-1.26V35.12c0-1.48-1.12-2.25-3.36-2.32v-.39l2.28.08c.7,0,1.48,0,2.35,0s1.61,0,2.42,0,1.61,0,2.41-.1v.39a8,8,0,0,0-1.27.17,2.67,2.67,0,0,0-1,.42,2.07,2.07,0,0,0-.65.8,3,3,0,0,0-.24,1.29v4.57c-1.51.5-3,1-4.46,1.38a15.14,15.14,0,0,1-4.26.64,12.78,12.78,0,0,1-4.27-.73,11.57,11.57,0,0,1-3.74-2.17,10.87,10.87,0,0,1-2.64-3.53,11.14,11.14,0,0,1-1-4.83,10.2,10.2,0,0,1,1-4.45,11.6,11.6,0,0,1,2.64-3.57,12.91,12.91,0,0,1,3.74-2.37,11.19,11.19,0,0,1,4.27-.86c.9,0,1.7,0,2.42.11s1.37.18,2,.3,1.12.24,1.59.37l1.37.36c0,.35,0,.81.09,1.39s.12,1.17.21,1.79.17,1.22.26,1.8.16,1,.23,1.38Z"/><path class="cls-2" d="M189.54,30.81a11.23,11.23,0,0,1,1-4.73,10.63,10.63,0,0,1,2.6-3.54,11.44,11.44,0,0,1,3.83-2.22,14.79,14.79,0,0,1,9.36,0,11.59,11.59,0,0,1,3.84,2.22,10.74,10.74,0,0,1,2.59,3.54,11.23,11.23,0,0,1,1,4.73,11.16,11.16,0,0,1-1,4.73,10.54,10.54,0,0,1-2.59,3.54,11.25,11.25,0,0,1-3.84,2.22,14.61,14.61,0,0,1-9.36,0,11.11,11.11,0,0,1-3.83-2.22,10.43,10.43,0,0,1-2.6-3.54A11.16,11.16,0,0,1,189.54,30.81Zm3.46,0a12.16,12.16,0,0,0,.59,3.82,10,10,0,0,0,1.69,3.22A8.32,8.32,0,0,0,198,40.06a8.22,8.22,0,0,0,7.24,0,8.32,8.32,0,0,0,2.71-2.21,10,10,0,0,0,1.7-3.22,12.84,12.84,0,0,0,0-7.63,10,10,0,0,0-1.7-3.22,8.48,8.48,0,0,0-2.71-2.22,8.31,8.31,0,0,0-7.24,0,8.48,8.48,0,0,0-2.71,2.22A10,10,0,0,0,193.59,27,12.1,12.1,0,0,0,193,30.81Z"/></g></g></g></g></svg>