<svg xmlns="http://www.w3.org/2000/svg" xmlns:xlink="http://www.w3.org/1999/xlink" viewBox="0 0 400 400"><defs><style>.cls-1{fill:none;}.cls-2{fill:#fff;}.cls-3,.cls-6{fill:#002169;}.cls-4{opacity:0.5;}.cls-5{clip-path:url(#clip-path);}.cls-6{stroke:#002169;stroke-miterlimit:2;stroke-width:2px;}</style><clipPath id="clip-path"><rect id="Cropping_Rect" data-name="Cropping Rect" class="cls-1" x="6" y="6" width="388" height="388"/></clipPath></defs><g id="Layer_2" data-name="Layer 2"><g id="Icon"><g id="ICON-2" data-name="ICON"><rect class="cls-2" x="2" y="2" width="396" height="396"/><path class="cls-3" d="M396,4V396H4V4H396m4-4H0V400H400V0Z"/><g class="cls-4"><rect class="cls-2" x="7" y="7" width="386" height="386"/><path class="cls-3" d="M392,8V392H8V8H392m2-2H6V394H394V6Z"/></g><g class="cls-5"><g id="Cutout"><g class="cls-4"><path class="cls-6" d="M142.89,331.55q11.22,0,26.14.19l1.22,0a50.2,50.2,0,0,0,2.6-10.12A118.65,118.65,0,0,1,155.47,318,69.27,69.27,0,0,1,127,301.74V175.12q0-20.91.39-40.85t1.94-40.07a124.64,124.64,0,0,1,43.1-10.57,47.51,47.51,0,0,0-2.63-9q-12.85.67-25.37,2.12A435.09,435.09,0,0,1,94.1,79.48Q84,79.48,74,79.09T53.83,77.93v4.65Q67,83.73,74.74,86.45t11.62,7.36a22.07,22.07,0,0,1,4.84,11,101.57,101.57,0,0,1,1,14.91V298.64A37.91,37.91,0,0,1,91,307.93a18.74,18.74,0,0,1-5.22,8.71,35.3,35.3,0,0,1-11.62,7.17q-7.55,3.09-20.33,4.25v4.65q13.17-.78,26-1.16t25.94-.39q8.13,0,17,.2T142.89,331.55Z"/><path class="cls-6" d="M331.84,155a130.38,130.38,0,0,0-32.72-43.56,147.2,147.2,0,0,0-48.2-27.69,165.27,165.27,0,0,0-22.43-6.14,59.28,59.28,0,0,0-2.34,11.72c-.06.63-.12,1.3-.18,2,1.16.44,2.31.89,3.46,1.37a116,116,0,0,1,38.33,25.55,118.43,118.43,0,0,1,25.17,38.14,121.42,121.42,0,0,1,9.1,47q0,58.08-27.3,88.66-17.57,19.69-48.52,26.7a55.63,55.63,0,0,0,2.55,11.83,196.14,196.14,0,0,0,28.16-5.23,126.84,126.84,0,0,0,44.33-21.1,106.26,106.26,0,0,0,31-37.17q11.61-22.65,11.62-54.79Q343.85,180.55,331.84,155Z"/></g><path class="cls-3" d="M128.61,357.22q17.43-1.46,27.11-5.33a29.65,29.65,0,0,0,14.76-12.1q5.09-8.22,6.29-21.53T178,284.62V123q0-20.33-1.21-33.64t-6.29-21.53q-5.08-8.24-15.25-12.1t-27.59-5.33V44.55q20.34,1,39.45,1.46t39.45.48q16,0,31.94-.48t31.46-1.46v5.81q-17,1.45-26.62,5.33a28.42,28.42,0,0,0-14.52,12.1Q224,76,222.75,89.32T221.54,123V284.62q0,20.33,1.21,33.64T229,339.79q5.09,8.25,15.25,12.1t28.07,5.33V363q-18.41-1-36.78-1.45t-36.79-.49q-17.91,0-35.33.49T128.61,363Z"/></g></g></g></g></g></svg>